<svg xmlns="http://www.w3.org/2000/svg" width="222.045" height="192.788" viewBox="0 0 222.045 192.788"><g transform="translate(-331.331 -139.606)"><g transform="translate(331.331 298.866)"><path d="M424.685,274.631h-7.2a.43.43,0,0,0-.372.215L409.4,287.281l-7.326-12.427a.431.431,0,0,0-.377-.224h-7.527a.429.429,0,0,0-.357.668l11.858,17.781v13.774a.429.429,0,0,0,.429.429h6.623a.429.429,0,0,0,.429-.429V292.786L425.04,275.3A.43.43,0,0,0,424.685,274.631Z" transform="translate(-319.924 -274.183)" fill="#c9a872"/><rect width="7.482" height="32.652" rx="0.363" transform="translate(55.883 0.449)" fill="#c9a872"/><path d="M336.027,282.612s-.719-1.908-1.033.044-3.657,22.826-3.657,22.826a.429.429,0,0,0,.425.5h6.2a.431.431,0,0,0,.426-.375s1.549-11.534,1.628-12.059a2.188,2.188,0,0,0-.142-1.041Z" transform="translate(-331.331 -272.876)" fill="#c9a872"/><path d="M369.162,274.631h-7.178a.431.431,0,0,0-.4.279l-9.16,24.511-8.987-24.509a.431.431,0,0,0-.4-.281h-5.5a.365.365,0,0,0-.387.543l12.888,31.84a.431.431,0,0,0,.4.27h4.033a.427.427,0,0,0,.4-.273l9.443-23.214,3.255,23.116a.43.43,0,0,0,.426.371h6.317a.43.43,0,0,0,.423-.5l-5.146-31.795A.431.431,0,0,0,369.162,274.631Z" transform="translate(-330.276 -274.183)" fill="#c9a872"/><path d="M448.909,274.707a27.4,27.4,0,0,0-4.9-.455c-8.312,0-15.279,3.845-18.189,10.034a16.638,16.638,0,0,0-1.585,7.193,15.248,15.248,0,0,0,7.443,13.084,23.463,23.463,0,0,0,12.547,3.218c8.688,0,15.357-3.507,18.3-9.623a15.326,15.326,0,0,0,1.585-6.91,16.071,16.071,0,0,0-4.488-11.107A20.494,20.494,0,0,0,448.909,274.707Zm3.158,25.107a12.029,12.029,0,0,1-7.406,2.116c-5.6,0-10.075-2.408-11.982-6.436a9.6,9.6,0,0,1-1.016-4.382,10.36,10.36,0,0,1,4.835-8.618,14.2,14.2,0,0,1,7.778-2.254h.141a12.976,12.976,0,0,1,9.223,3.647,10.1,10.1,0,0,1,2.988,7.223A10.625,10.625,0,0,1,452.067,299.815Z" transform="translate(-314.348 -274.252)" fill="#c9a872"/><path d="M487.243,274.631H464.314a.43.43,0,0,0-.429.429v5.009a.429.429,0,0,0,.429.429h7.75v26.355a.43.43,0,0,0,.429.429h6.569a.429.429,0,0,0,.429-.429V280.4h7.751a.429.429,0,0,0,.429-.429V275.06A.43.43,0,0,0,487.243,274.631Z" transform="translate(-307.1 -274.183)" fill="#c9a872"/><path d="M524.859,306.681,510.6,274.889a.433.433,0,0,0-.4-.258h-8.39a.431.431,0,0,0-.394.258l-14.255,31.793a.429.429,0,0,0,.393.6h6.994a.426.426,0,0,0,.4-.268l.659-1.63h0l10.406-24.32,6.214,14.524H505.7a.428.428,0,0,0-.4.27l-1.916,4.764a.429.429,0,0,0,.4.59h10.853l2.438,5.8a.427.427,0,0,0,.4.268h6.993A.431.431,0,0,0,524.859,306.681Z" transform="translate(-302.85 -274.183)" fill="#c9a872"/></g><g transform="translate(373.623 139.606)"><g transform="translate(13.043 26.287)"><path d="M389.806,238.13a.379.379,0,0,0,.219-.07l5.119-3.585a.38.38,0,0,0,.16-.255.387.387,0,0,0-.077-.292,48.633,48.633,0,0,1,3.121-62.958.255.255,0,0,1,.332-.034l28.689,20.088a.257.257,0,0,1,0,.42l-.886.619a14.941,14.941,0,0,0-2.715,21.949.383.383,0,0,0,.51.065l5.189-3.634a.383.383,0,0,0,.052-.584,7.862,7.862,0,0,1-2.327-5.582,7.945,7.945,0,0,1,3.27-6.408l38.462-26.932a.259.259,0,0,1,.147-.046.253.253,0,0,1,.186.08,48.629,48.629,0,0,1,3.121,62.958.381.381,0,0,0,.082.548l5.119,3.584a.381.381,0,0,0,.526-.082,55.609,55.609,0,0,0-6.205-74.3l-1.856-1.743a.384.384,0,0,0-.263-.1.379.379,0,0,0-.22.07l-35.612,24.936a.245.245,0,0,1-.147.046.25.25,0,0,1-.147-.046L398.043,161.9a.381.381,0,0,0-.481.034l-1.857,1.743a55.611,55.611,0,0,0-6.2,74.3A.38.38,0,0,0,389.806,238.13Z" transform="translate(-378.114 -161.83)" fill="#c9a872"/></g><g transform="translate(0 23.695)"><path d="M381.147,246a.379.379,0,0,0,.219-.07l5.136-3.595a.38.38,0,0,0,.159-.254.385.385,0,0,0-.072-.292,61.518,61.518,0,0,1,2.992-77.911.382.382,0,0,0-.067-.567l-5.152-3.608a.383.383,0,0,0-.51.063,68.519,68.519,0,0,0-3.01,86.081A.38.38,0,0,0,381.147,246Z" transform="translate(-367.087 -159.639)" fill="#c9a872"/></g><g transform="translate(21.946)"><path d="M391.272,162.287a.381.381,0,0,0,.254-.1,61.569,61.569,0,0,1,81.8,0,.381.381,0,0,0,.254.1.385.385,0,0,0,.219-.07l5.249-3.675a.387.387,0,0,0,.162-.287.38.38,0,0,0-.122-.306,68.527,68.527,0,0,0-93.328,0,.376.376,0,0,0-.122.306.382.382,0,0,0,.161.287l5.249,3.675A.386.386,0,0,0,391.272,162.287Z" transform="translate(-385.641 -139.606)" fill="#c9a872"/></g><g transform="translate(114.876 23.695)"><path d="M472.737,246a.38.38,0,0,0,.308-.154,68.516,68.516,0,0,0-3.011-86.08.385.385,0,0,0-.29-.132.379.379,0,0,0-.219.07l-5.152,3.608a.382.382,0,0,0-.069.565,61.516,61.516,0,0,1,2.992,77.912.384.384,0,0,0-.072.292.375.375,0,0,0,.158.253l5.136,3.6A.385.385,0,0,0,472.737,246Z" transform="translate(-464.209 -159.639)" fill="#c9a872"/></g><g transform="translate(17.073 58.863)"><path d="M386.316,249.307a.376.376,0,0,0,.219-.07l46.5-32.557a.254.254,0,0,1,.147-.046.259.259,0,0,1,.147.046l46.5,32.557a.383.383,0,0,0,.483-.034c1.551-1.463,3.042-3.007,4.435-4.588a.384.384,0,0,0-.067-.567l-45.062-31.555a.256.256,0,0,1-.109-.209.253.253,0,0,1,.109-.209l.673-.472c.059-.041.878-.647.878-.647a14.935,14.935,0,0,0,2.049-21.45.388.388,0,0,0-.291-.134.379.379,0,0,0-.219.07l-5.19,3.634a.382.382,0,0,0-.051.584,7.891,7.891,0,0,1-1.163,12.146l-54.615,38.242a.382.382,0,0,0-.067.567c1.4,1.586,2.89,3.13,4.434,4.588A.382.382,0,0,0,386.316,249.307Z" transform="translate(-381.522 -189.372)" fill="#c9a872"/></g><g transform="translate(25.646 117.904)"><path d="M431.856,258.849a68.863,68.863,0,0,0,42.942-15.11.389.389,0,0,0,.143-.312.383.383,0,0,0-.163-.3l-5.378-3.767a.378.378,0,0,0-.451.007,61.493,61.493,0,0,1-74.187,0,.373.373,0,0,0-.231-.079.378.378,0,0,0-.22.071l-5.378,3.766a.383.383,0,0,0-.02.613A68.863,68.863,0,0,0,431.856,258.849Z" transform="translate(-388.77 -239.288)" fill="#c9a872"/></g></g></g></svg>